<svg width="12" height="42" viewBox="0 0 12 42" fill="none" xmlns="http://www.w3.org/2000/svg">
<path d="M10.4057 41.1063H1.74389V11.8933H10.4057V41.1063ZM2.46614 8.17415C1.99179 7.7426 1.61529 7.2169 1.36137 6.63157C1.10746 6.04624 0.981872 5.41452 0.99285 4.77789C0.981949 4.14204 1.1076 3.51111 1.36153 2.92662C1.61547 2.34214 1.99193 1.81735 2.46614 1.3868C3.45101 0.494565 4.73922 -0.000488281 6.0761 -0.000488281C7.41297 -0.000488281 8.7012 0.494565 9.68606 1.3868C10.1603 1.81735 10.5367 2.34214 10.7907 2.92662C11.0446 3.51111 11.1703 4.14204 11.1594 4.77789C11.1703 5.41452 11.0447 6.04624 10.7908 6.63157C10.5369 7.2169 10.1604 7.7426 9.68606 8.17415C8.70036 9.06473 7.41245 9.55867 6.0761 9.55867C4.73974 9.55867 3.45185 9.06473 2.46614 8.17415Z" fill="white"/>
</svg>
