<svg width="33" height="42" viewBox="0 0 33 42" fill="none" xmlns="http://www.w3.org/2000/svg">
<path d="M22.6033 31.7672C21.1269 33.1028 19.197 33.8437 17.1942 33.8437C15.1915 33.8437 13.2615 33.1028 11.7852 31.7672C11.0873 31.1113 10.5318 30.3224 10.1522 29.4482C9.77254 28.5741 9.5768 27.6329 9.5768 26.6818C9.5768 25.7308 9.77254 24.7896 10.1522 23.9155C10.5318 23.0413 11.0873 22.2524 11.7852 21.5965C13.2623 20.2625 15.192 19.5227 17.1942 19.5227C19.1964 19.5227 21.1261 20.2625 22.6033 21.5965C23.3004 22.2528 23.8554 23.0418 24.2346 23.9159C24.6138 24.79 24.8093 25.731 24.8093 26.6818C24.8093 27.6327 24.6138 28.5737 24.2346 29.4478C23.8554 30.3219 23.3004 31.1109 22.6033 31.7672ZM24.6392 0.96582V13.3861C22.2098 12.1377 19.5037 11.5057 16.7651 11.5472C12.2536 11.5472 8.44518 13.0107 5.33983 15.9378C3.83989 17.3012 2.64936 18.9625 1.84653 20.8125C1.04371 22.6625 0.646769 24.6593 0.681823 26.6715C0.681823 30.9123 2.23624 34.4937 5.34507 37.4156C8.45391 40.3375 12.2623 41.801 16.7703 41.8062C19.5092 41.8468 22.2152 41.2139 24.6444 39.9647V41.0417H32.8692V0.96582H24.6392Z" fill="white"/>
</svg>
